<svg width="40" height="42" viewBox="0 0 40 42" fill="none" xmlns="http://www.w3.org/2000/svg">
<path d="M11.6084 27.6538H34.7504C37.3745 27.6538 39.5152 25.5131 39.5152 22.889V13.1523C39.5152 13.1436 39.5152 13.1264 39.5152 13.1177C39.5152 13.0918 39.5152 13.0746 39.5152 13.0487C39.5152 13.0314 39.5152 13.0142 39.5066 12.9969C39.5066 12.9796 39.498 12.9537 39.498 12.9365C39.498 12.9192 39.4893 12.9019 39.4893 12.8847C39.4807 12.8674 39.4807 12.8502 39.4721 12.8243C39.4634 12.807 39.4634 12.7897 39.4548 12.7725C39.4462 12.7552 39.4462 12.7379 39.4375 12.7207C39.4289 12.7034 39.4203 12.6862 39.4117 12.6603C39.403 12.643 39.3944 12.6257 39.3858 12.6171C39.3771 12.5998 39.3685 12.5826 39.3599 12.5653C39.3512 12.548 39.3426 12.5394 39.334 12.5221C39.3253 12.5049 39.3081 12.4876 39.2994 12.4704C39.2908 12.4531 39.2822 12.4445 39.2649 12.4272C39.2563 12.4099 39.239 12.4013 39.2304 12.384C39.2218 12.3668 39.2045 12.3581 39.1959 12.3409C39.1872 12.3236 39.17 12.315 39.1613 12.3063C39.1441 12.2891 39.1354 12.2805 39.1182 12.2632C39.1009 12.2546 39.0923 12.2373 39.075 12.2287C39.0578 12.22 39.0405 12.2028 39.0232 12.1941C39.006 12.1855 38.9973 12.1769 38.9801 12.1682C38.9628 12.1596 38.9455 12.151 38.9283 12.1337C38.911 12.1251 38.8937 12.1164 38.8765 12.1078C38.8592 12.0992 38.8419 12.0906 38.8247 12.0819C38.8074 12.0733 38.7902 12.0647 38.7729 12.056C38.7556 12.0474 38.7384 12.0474 38.7211 12.0388C38.7038 12.0301 38.6779 12.0215 38.6607 12.0215C38.6434 12.0215 38.6262 12.0129 38.6175 12.0129C38.5916 12.0042 38.5744 12.0042 38.5485 12.0042C38.5398 12.0042 38.5312 11.9956 38.5139 11.9956L9.18285 7.94725V3.85575C9.18285 3.81259 9.18285 3.76943 9.17422 3.7349C9.17422 3.72627 9.17421 3.71764 9.16558 3.70037C9.16558 3.67448 9.15695 3.64858 9.15695 3.62269C9.14832 3.59679 9.14832 3.57953 9.13969 3.55363C9.13969 3.53637 9.13106 3.52774 9.13106 3.51047C9.12242 3.48458 9.11379 3.45868 9.10516 3.43279C9.10516 3.42415 9.09653 3.40689 9.09653 3.39826C9.0879 3.37236 9.07926 3.3551 9.062 3.3292C9.05337 3.32057 9.05337 3.30331 9.04474 3.29468C9.03611 3.27741 9.02747 3.26015 9.01021 3.24289C9.00158 3.22562 8.99295 3.21699 8.98431 3.19973C8.97568 3.18246 8.96705 3.17383 8.95842 3.15657C8.94979 3.1393 8.93252 3.12204 8.92389 3.10478C8.91526 3.09614 8.90663 3.08751 8.89799 3.07888C8.88073 3.06162 8.86347 3.04435 8.8462 3.02709C8.83757 3.01846 8.82894 3.00982 8.82031 3.00119C8.80304 2.98393 8.78578 2.96667 8.75988 2.9494C8.75125 2.94077 8.73399 2.93214 8.72536 2.92351C8.70809 2.90624 8.69083 2.89761 8.67357 2.88035C8.64767 2.86308 8.62177 2.84582 8.60451 2.83719C8.59588 2.82856 8.58725 2.82856 8.57862 2.81992C8.54409 2.80266 8.50093 2.7854 8.4664 2.76813L2.10471 0.0922531C1.50911 -0.158071 0.827196 0.118149 0.576872 0.713748C0.326548 1.30935 0.602768 1.99126 1.19837 2.24159L6.84361 4.62398V9.90669V10.744V17.1661V22.9063V30.1571C6.84361 32.574 8.6563 34.5766 10.9955 34.8787C10.5726 35.5865 10.3223 36.4152 10.3223 37.2956C10.3223 39.8938 12.4371 42 15.0266 42C17.6162 42 19.731 39.8852 19.731 37.2956C19.731 36.4324 19.4979 35.6124 19.0836 34.9218H29.5627C29.1484 35.621 28.9153 36.4324 28.9153 37.2956C28.9153 39.8938 31.0301 42 33.6197 42C36.2092 42 38.324 39.8852 38.324 37.2956C38.324 34.706 36.2092 32.5912 33.6197 32.5912H11.6084C10.2618 32.5912 9.17422 31.495 9.17422 30.1571V26.9978C9.88203 27.4121 10.7193 27.6538 11.6084 27.6538ZM17.409 37.287C17.409 38.599 16.3387 39.6607 15.0353 39.6607C13.7318 39.6607 12.6615 38.5904 12.6615 37.287C12.6615 35.9836 13.7318 34.9132 15.0353 34.9132C16.3387 34.9132 17.409 35.9749 17.409 37.287ZM36.0021 37.287C36.0021 38.599 34.9317 39.6607 33.6283 39.6607C32.3249 39.6607 31.2545 38.5904 31.2545 37.287C31.2545 35.9836 32.3249 34.9132 33.6283 34.9132C34.9317 34.9132 36.0021 35.9749 36.0021 37.287ZM34.7504 25.3232H11.6084C10.2618 25.3232 9.17422 24.227 9.17422 22.889V17.1488V10.7267V10.2951L37.1846 14.1536V22.8804C37.1846 24.2356 36.0884 25.3232 34.7504 25.3232Z" fill="#595959"/>
</svg>
