<svg width="50" height="51" viewBox="0 0 50 51" fill="none" xmlns="http://www.w3.org/2000/svg">
<g clip-path="url(#clip0_88_600)">
<path d="M43.6488 21.5201L42.5876 19.1847C42.5277 19.0531 42.5277 18.9021 42.5876 18.7704L43.6488 16.4347C43.9979 15.6661 43.8182 14.7624 43.2014 14.1856L41.3272 12.4342C41.2215 12.3354 41.1639 12.1958 41.1689 12.0513L41.2551 9.4874C41.2837 8.64359 40.7718 7.87722 39.9814 7.58082L37.5796 6.67941C37.4442 6.62867 37.3374 6.52186 37.2867 6.38644L36.3856 3.98471C36.0889 3.19431 35.3198 2.68161 34.4787 2.71099L31.9152 2.79758C31.7687 2.80178 31.631 2.74456 31.5322 2.63889L29.7805 0.764731C29.2041 0.147896 28.3 -0.0317757 27.5314 0.31765L25.196 1.37852C25.0644 1.43841 24.9133 1.43802 24.7817 1.37852L22.446 0.31765C21.6773 -0.0317757 20.7736 0.147896 20.1969 0.764731L18.4455 2.63889C18.3467 2.74456 18.2079 2.80254 18.0625 2.79758L15.4987 2.71099C14.6545 2.68314 13.8889 3.19469 13.5921 3.98509L12.6907 6.38682C12.64 6.52224 12.5332 6.62905 12.3977 6.67979L9.996 7.58082C9.2056 7.8776 8.69367 8.64359 8.72228 9.4874L8.80887 12.0513C8.81345 12.1958 8.75585 12.3354 8.65018 12.4342L6.7764 14.1856C6.15957 14.7624 5.97952 15.6661 6.32894 16.4347L7.38981 18.7701C7.4497 18.9017 7.4497 19.0527 7.38981 19.1847L6.32894 21.5201C5.97952 22.2887 6.15919 23.1924 6.77602 23.7692L8.65018 25.5209C8.75585 25.6197 8.81345 25.759 8.80887 25.9035L8.72228 28.4674C8.69367 29.3112 9.2056 30.0776 9.996 30.374L12.3977 31.275C12.5332 31.3261 12.64 31.4329 12.6907 31.568L13.5921 33.9697C13.6215 34.0483 13.6554 34.1242 13.694 34.1967L7.66904 43.4832C7.37684 43.9333 7.37455 44.4937 7.66294 44.9461C7.95095 45.3985 8.45945 45.6335 8.99083 45.5591L13.8954 44.8736C13.961 44.8644 14.0262 44.895 14.0609 44.9514L16.8674 49.4985C17.1123 49.8953 17.5369 50.1356 18.003 50.1405C18.0084 50.1405 18.0133 50.1409 18.0187 50.1409C18.4787 50.1409 18.9022 49.9113 19.1528 49.5245L27.0168 37.4033L27.5314 37.6371C28.3 37.9862 29.2037 37.8065 29.7805 37.1897L31.5322 35.3159C31.631 35.2102 31.7714 35.1522 31.9148 35.1572L34.4787 35.2438C35.3229 35.2724 36.0885 34.7605 36.3853 33.9697L37.2863 31.568C37.337 31.4325 37.4442 31.3257 37.5793 31.275L39.981 30.374C40.7718 30.0772 41.2837 29.3108 41.2551 28.4674L41.1685 25.9035C41.1635 25.759 41.2215 25.6193 41.3272 25.5205L43.201 23.7688C43.8182 23.1924 43.9979 22.2887 43.6488 21.5201ZM18.0206 48.5784L15.3076 44.1824C14.9677 43.6315 14.3344 43.3336 13.6928 43.4229L9.03165 44.0744L14.8231 35.1481C15.0367 35.2179 15.2649 35.2514 15.4987 35.2438L18.0625 35.1572C18.2079 35.1522 18.3467 35.2102 18.4455 35.3159L20.1972 37.1897C20.5776 37.5967 21.1006 37.8134 21.6331 37.8134C21.9074 37.8134 22.1847 37.7558 22.446 37.6371L24.7817 36.5763C24.9133 36.5164 25.0644 36.5164 25.196 36.5763L25.6683 36.7907L18.0206 48.5784ZM42.2011 22.6988L40.327 24.4505C39.9123 24.8381 39.6857 25.3859 39.7048 25.9531L39.7914 28.5166C39.7986 28.7317 39.6682 28.9271 39.4668 29.0026L37.065 29.9036C36.5337 30.1031 36.1144 30.522 35.9153 31.0534L35.0139 33.4551C34.9384 33.6565 34.7415 33.787 34.5283 33.7797L31.9644 33.6931C31.3976 33.6744 30.8494 33.901 30.4622 34.3157L28.7105 36.1895C28.5636 36.3466 28.3332 36.3928 28.1371 36.3035L25.8018 35.2427C25.2853 35.0077 24.6925 35.0077 24.1756 35.2427L21.8402 36.3035C21.6442 36.3924 21.4141 36.3466 21.2673 36.1895L19.5156 34.3157C19.1432 33.9171 18.6229 33.6924 18.0797 33.6924C18.0576 33.6924 18.0355 33.6927 18.013 33.6935L15.4495 33.7801C15.2343 33.7874 15.039 33.6569 14.9635 33.4555L14.0625 31.0537C13.863 30.5224 13.4437 30.1031 12.9127 29.904L10.511 29.0026C10.3096 28.9271 10.1791 28.7317 10.1864 28.517L10.2726 25.9531C10.292 25.3859 10.065 24.8381 9.65039 24.4509L7.77662 22.6988C7.61945 22.5519 7.57329 22.3219 7.66256 22.1258L8.72342 19.7905C8.95841 19.274 8.95841 18.6812 8.72342 18.1643L7.66256 15.8289C7.57367 15.6332 7.61945 15.4028 7.77662 15.256L9.65039 13.5043C10.065 13.1167 10.292 12.5689 10.2729 12.0017L10.1864 9.43781C10.1791 9.22304 10.3096 9.02773 10.511 8.9522L12.9127 8.05117C13.4441 7.85166 13.863 7.43281 14.0625 6.90142L14.9635 4.49969C15.039 4.29828 15.2336 4.1682 15.4495 4.17506L18.0133 4.26128C18.5813 4.28149 19.128 4.05376 19.5156 3.6391L21.2673 1.76532C21.4141 1.60778 21.6445 1.56238 21.8402 1.65127L24.1756 2.71213C24.6925 2.94673 25.2849 2.94673 25.8018 2.71213L28.1371 1.65127C28.3332 1.56238 28.5636 1.60816 28.7105 1.76532L30.4622 3.6391C30.8494 4.05376 31.3987 4.28188 31.9644 4.26166L34.5283 4.17506C34.7404 4.1682 34.9384 4.29828 35.0139 4.49969L35.9153 6.90142C36.1144 7.43281 36.5337 7.85166 37.065 8.05117L39.4668 8.9522C39.6682 9.02811 39.7986 9.22304 39.7914 9.43819L39.7048 12.002C39.6857 12.5693 39.9123 13.1167 40.327 13.5043L42.2011 15.256C42.3583 15.4028 42.4041 15.6332 42.3152 15.8289L41.254 18.1643C41.0194 18.6812 41.0194 19.274 41.254 19.7905L42.3148 22.1258C42.4041 22.3219 42.3583 22.5519 42.2011 22.6988Z" fill="#404040"/>
<path d="M37.6396 19.7248C37.2379 19.679 36.8744 19.9663 36.8274 20.368C36.1305 26.3704 31.0413 30.8966 24.9889 30.8966C18.9331 30.8966 13.8435 26.3674 13.1496 20.3615C13.1031 19.9598 12.7399 19.6707 12.3379 19.718C11.9362 19.7645 11.6478 20.1277 11.6943 20.5297C12.4737 27.2749 18.1892 32.3614 24.9889 32.3614C31.7848 32.3614 37.5 27.2779 38.2828 20.5366C38.3293 20.1349 38.0413 19.7714 37.6396 19.7248Z" fill="#404040"/>
<path d="M24.9889 5.59375C18.1869 5.59375 12.471 10.6822 11.6936 17.43C11.6474 17.8317 11.9358 18.1948 12.3375 18.2414C12.3661 18.2448 12.3943 18.2463 12.4222 18.2463C12.7892 18.2463 13.1058 17.9709 13.1489 17.5975C13.8412 11.5893 18.9312 7.05859 24.9889 7.05859C31.0451 7.05859 36.1351 11.5882 36.8282 17.5948C36.8748 17.9965 37.2375 18.2849 37.64 18.2383C38.0421 18.1922 38.3301 17.8286 38.2835 17.4269C37.505 10.681 31.7894 5.59375 24.9889 5.59375Z" fill="#404040"/>
<path d="M37.59 36.2104C37.3699 35.8709 36.916 35.7744 36.5768 35.9945C36.2373 36.2146 36.1408 36.6682 36.3609 37.0077L40.9458 44.0744L36.285 43.4233C35.6438 43.3336 35.0098 43.6315 34.6702 44.1824L31.9568 48.5784L27.2076 41.2584C26.9874 40.9189 26.5339 40.8224 26.1947 41.0425C25.8552 41.2626 25.7587 41.7162 25.9788 42.0557L30.8246 49.5245C31.0757 49.9113 31.4987 50.1409 31.9588 50.1409H31.9744C32.4406 50.1356 32.8651 49.8956 33.1104 49.4989L35.9165 44.9514C35.9516 44.895 36.0168 44.8644 36.0821 44.8736L40.9866 45.5591C41.5176 45.6339 42.0265 45.3985 42.3149 44.9461C42.6029 44.4937 42.6006 43.9333 42.3088 43.4835L37.59 36.2104Z" fill="#404040"/>
</g>
<defs>
<clipPath id="clip0_88_600">
<rect width="50" height="50" fill="white" transform="translate(-6.10352e-05 0.141113)"/>
</clipPath>
</defs>
</svg>
