<svg width="20" height="21" viewBox="0 0 20 21" fill="none" xmlns="http://www.w3.org/2000/svg">
<g clip-path="url(#clip0_196_59)">
<path d="M8.80758 0.267334C3.95121 0.267334 0 4.21854 0 9.07491C0 13.9316 3.95121 17.8825 8.80758 17.8825C13.6642 17.8825 17.6152 13.9316 17.6152 9.07491C17.6152 4.21854 13.6642 0.267334 8.80758 0.267334ZM8.80758 16.2565C4.8477 16.2565 1.62602 13.0348 1.62602 9.07495C1.62602 5.11507 4.8477 1.89335 8.80758 1.89335C12.7675 1.89335 15.9891 5.11503 15.9891 9.07491C15.9891 13.0348 12.7675 16.2565 8.80758 16.2565Z" fill="#1A467C"/>
<path d="M19.762 18.8795L15.1007 14.2182C14.7831 13.9006 14.2687 13.9006 13.9511 14.2182C13.6335 14.5355 13.6335 15.0505 13.9511 15.3678L18.6124 20.0291C18.7712 20.1879 18.9791 20.2673 19.1872 20.2673C19.395 20.2673 19.6032 20.1879 19.762 20.0291C20.0796 19.7117 20.0796 19.1968 19.762 18.8795Z" fill="#1A467C"/>
</g>
<defs>
<clipPath id="clip0_196_59">
<rect width="20" height="20" fill="white" transform="translate(0 0.267334)"/>
</clipPath>
</defs>
</svg>
