<svg width="15" height="15" viewBox="0 0 15 15" fill="none" xmlns="http://www.w3.org/2000/svg">
<g clip-path="url(#clip0_88_101)">
<path d="M14.2385 5.60587C14.1464 5.32239 13.8949 5.12169 13.5986 5.09488L9.55723 4.72797L7.96005 0.988655C7.84213 0.713931 7.57381 0.536621 7.27516 0.536621C6.97651 0.536621 6.70809 0.713931 6.59092 0.988655L4.99374 4.72797L0.95171 5.09488C0.65541 5.12222 0.404506 5.32293 0.311792 5.60587C0.219612 5.88936 0.304742 6.20029 0.528837 6.39683L3.5838 9.0756L2.68305 13.0429C2.61714 13.3346 2.73037 13.6362 2.9724 13.8112C3.1025 13.9057 3.25535 13.9529 3.40874 13.9529C3.54054 13.9529 3.67246 13.9179 3.79027 13.8474L7.27516 11.7637L10.7594 13.8474C11.015 14.0001 11.3364 13.9861 11.5779 13.8112C11.82 13.6362 11.9332 13.3346 11.8673 13.0429L10.9665 9.0756L14.0215 6.39683C14.2455 6.20029 14.3307 5.89 14.2385 5.60587Z" fill="#FFA800"/>
</g>
<defs>
<clipPath id="clip0_88_101">
<rect width="14" height="14" fill="white" transform="translate(0.275208 0.23584)"/>
</clipPath>
</defs>
</svg>
