<svg width="26" height="26" viewBox="0 0 26 26" xmlns="http://www.w3.org/2000/svg">
<g clip-path="url(#clip0_196_68)">
<path d="M25.487 3.26291C25.1817 2.88945 24.7243 2.68384 24.199 2.68384C23.9135 2.68384 23.611 2.74392 23.3001 2.86275L2.13804 10.9409C1.01499 11.3695 0.86374 12.0127 0.873468 12.3579C0.883195 12.7031 1.07069 13.3368 2.21624 13.7013C2.22311 13.7034 2.22997 13.7055 2.23684 13.7074L6.62641 14.9635L9.0003 21.7518C9.32397 22.6772 10.0505 23.2521 10.8966 23.2521C11.4301 23.2521 11.9548 23.0286 12.4141 22.6059L15.1292 20.1059L19.0673 23.2769C19.0677 23.2773 19.0682 23.2775 19.0686 23.2779L19.106 23.308C19.1094 23.3107 19.1131 23.3135 19.1165 23.3162C19.5542 23.6557 20.032 23.835 20.4987 23.8352H20.4989C21.4108 23.8352 22.137 23.1602 22.3485 22.1157L25.8159 4.99459C25.9551 4.30737 25.8384 3.69244 25.487 3.26291ZM8.09488 14.7249L16.5637 10.3985L11.2905 16.0017C11.204 16.0935 11.1428 16.2058 11.1127 16.3281L10.0959 20.4468L8.09488 14.7249ZM11.4217 21.5283C11.3866 21.5605 11.3513 21.5893 11.316 21.6158L12.2594 17.795L13.9754 19.1769L11.4217 21.5283ZM24.3802 4.70372L20.9128 21.825C20.8795 21.9889 20.7728 22.3702 20.4987 22.3702C20.3633 22.3702 20.1932 22.2963 20.019 22.1623L15.5566 18.5692C15.556 18.5686 15.5553 18.568 15.5545 18.5677L12.8993 16.4295L20.5251 8.32654C20.7692 8.06714 20.7913 7.66984 20.5775 7.38488C20.3635 7.09992 19.9757 7.01028 19.6586 7.1724L7.11622 13.5799L2.66695 12.307L23.8225 4.23127C24.0012 4.16299 24.1259 4.14868 24.199 4.14868C24.2438 4.14868 24.3235 4.15402 24.3531 4.19045C24.392 4.23795 24.4416 4.39988 24.3802 4.70372Z"/>
</g>
<defs>
<clipPath id="clip0_196_68">
<rect width="25" height="25" fill="white" transform="translate(0.873047 0.779541)"/>
</clipPath>
</defs>
</svg>
