<svg width="26" height="25" viewBox="0 0 26 25" fill="none" xmlns="http://www.w3.org/2000/svg">
<path d="M24.2912 8.82359C24.2914 6.47564 23.3711 4.26235 21.7001 2.59132C20.0291 0.920296 17.8158 0 15.4676 0H10.2396C10.2394 0 10.2394 0 10.2394 0C7.89165 0 5.67818 0.920296 4.00734 2.59113C2.33631 4.26235 1.41602 6.47564 1.41602 8.82359V12.9332C1.41602 14.7516 1.97067 16.5007 3.0201 17.9916C3.94592 19.3069 5.19104 20.3344 6.64272 20.9858V23.3463C6.64272 24.5668 7.32613 25 7.9113 25C8.32939 25 8.74748 24.7936 9.15451 24.3868L11.7844 21.7569L15.4678 21.7567C17.8158 21.7567 20.0291 20.8364 21.7001 19.1656C23.3711 17.4946 24.2914 15.2811 24.2914 12.9332L24.2912 8.82359ZM15.4678 20.2919L11.4811 20.2921C11.2867 20.2921 11.1006 20.3691 10.9632 20.5065L8.11882 23.3509C8.1152 23.3547 8.11138 23.3583 8.10757 23.362C8.10757 23.3568 8.10757 23.3515 8.10757 23.3463V20.4969C8.10757 20.1931 7.92007 19.9209 7.63626 19.8126C4.79202 18.7273 2.88105 15.9626 2.88105 12.9332V8.82359C2.88105 6.86684 3.64895 5.02129 5.04322 3.62682C6.43749 2.23274 8.28285 1.46484 10.2396 1.46484H15.4676C17.4244 1.46484 19.2699 2.23274 20.6642 3.62701C22.0587 5.02148 22.8266 6.86703 22.8264 8.82359L22.8266 12.9332C22.8264 16.9909 19.5253 20.2919 15.4678 20.2919Z" fill="#437FC8"/>
<path d="M14.8014 11.9794C14.5155 11.6933 14.0518 11.6933 13.7657 11.9794L13.1741 12.5709L10.8814 10.2784L11.4731 9.68697C11.6104 9.54964 11.6877 9.36329 11.6877 9.16893C11.6877 8.97476 11.6104 8.78841 11.4731 8.65108L8.69941 5.87742C8.56209 5.74009 8.37593 5.66284 8.18157 5.66284C7.9874 5.66284 7.80105 5.74009 7.66372 5.87742L5.72204 7.8191C4.67205 8.86909 4.67205 10.5779 5.72223 11.6285L11.824 17.7306C12.3314 18.2378 13.0079 18.517 13.7287 18.517C14.4497 18.517 15.1262 18.2378 15.6336 17.7306L17.5753 15.7891C17.7126 15.6516 17.7898 15.4655 17.7898 15.2711C17.7898 15.0769 17.7126 14.8906 17.5753 14.7533L14.8014 11.9794ZM14.5977 16.6946C14.3671 16.9252 14.0585 17.0522 13.7287 17.0522C13.3989 17.0522 13.0903 16.9252 12.8597 16.6946L6.75811 10.5926C6.27899 10.1134 6.2788 9.33372 6.75792 8.85479L8.18157 7.43095L9.91935 9.16893L9.32769 9.7604C9.19037 9.89773 9.11312 10.0841 9.11312 10.2782C9.11312 10.4726 9.19037 10.6588 9.32769 10.7963L12.656 14.1246C12.9421 14.4105 13.4058 14.4107 13.6919 14.1246L14.2836 13.5331L16.0213 15.2709L14.5977 16.6946Z" fill="#437FC8"/>
<path d="M13.0312 3.23999C12.6267 3.23999 12.2988 3.56786 12.2988 3.97241C12.2988 4.37677 12.6267 4.70483 13.0312 4.70483C14.7074 4.70483 16.2835 5.35753 17.4687 6.54295C18.6541 7.72817 19.3068 9.30402 19.3068 10.9804C19.3068 11.3848 19.6347 11.7128 20.0392 11.7128C20.4436 11.7128 20.7717 11.3849 20.7717 10.9804C20.7717 8.91283 19.9666 6.96905 18.5046 5.50706C17.0426 4.04508 15.0988 3.23999 13.0312 3.23999Z" fill="#437FC8"/>
<path d="M16.1688 10.9802C16.1688 11.3845 16.4969 11.7126 16.9013 11.7126C17.3058 11.7126 17.6337 11.3845 17.6337 10.9802C17.6337 8.44244 15.569 6.37793 13.0312 6.37793C12.6267 6.37793 12.2988 6.7058 12.2988 7.11035C12.2988 7.5149 12.6267 7.84277 13.0312 7.84277C14.7614 7.84277 16.1688 9.25021 16.1688 10.9802Z" fill="#437FC8"/>
</svg>
