<?xml version="1.0" encoding="utf-8"?><svg viewBox="0 0 40 42" xmlns="http://www.w3.org/2000/svg" xmlns:xlink="http://www.w3.org/1999/xlink"><style>:root>svg{display:none}:root>svg:target{display:block}</style><svg fill="none" viewBox="0 0 40 42" id="cart" xmlns="http://www.w3.org/2000/svg"><path d="M11.608 27.654H34.75a4.774 4.774 0 004.765-4.765v-9.737-.034-.07c0-.017 0-.034-.008-.051 0-.017-.009-.043-.009-.06 0-.018-.009-.035-.009-.052-.008-.018-.008-.035-.017-.06-.009-.018-.009-.035-.017-.052-.009-.018-.009-.035-.017-.052-.01-.018-.018-.035-.026-.06-.009-.018-.018-.035-.026-.044a12.5 12.5 0 01-.026-.052c-.009-.017-.017-.026-.026-.043-.009-.017-.026-.034-.035-.052a.15.15 0 00-.034-.043c-.009-.017-.026-.026-.035-.043-.008-.017-.025-.026-.034-.043-.009-.017-.026-.026-.035-.035l-.043-.043c-.017-.008-.026-.026-.043-.034-.017-.009-.035-.026-.052-.035-.017-.009-.026-.017-.043-.026-.017-.008-.034-.017-.052-.034l-.051-.026-.052-.026a12.5 12.5 0 01-.052-.026c-.017-.009-.035-.009-.052-.017a.16.16 0 00-.06-.018c-.018 0-.035-.008-.044-.008-.025-.009-.043-.009-.069-.009-.008 0-.017-.008-.034-.008L9.183 7.947V3.856c0-.043 0-.087-.009-.121 0-.009 0-.017-.008-.035 0-.026-.01-.051-.01-.077-.008-.026-.008-.043-.016-.07 0-.017-.009-.025-.009-.043l-.026-.077c0-.009-.008-.026-.008-.035a.259.259 0 00-.035-.069c-.009-.008-.009-.026-.017-.034a.18.18 0 00-.035-.052c-.008-.017-.017-.026-.026-.043-.008-.018-.017-.026-.026-.043-.008-.018-.025-.035-.034-.052a31.622 31.622 0 00-.026-.026l-.052-.052-.026-.026c-.017-.017-.034-.034-.06-.052-.009-.008-.026-.017-.035-.025-.017-.018-.034-.026-.051-.044a.795.795 0 00-.07-.043c-.008-.008-.017-.008-.025-.017l-.113-.052L2.105.092A1.164 1.164 0 00.577.714c-.25.595.026 1.277.621 1.528l5.646 2.382v25.533a4.77 4.77 0 004.151 4.722 4.709 4.709 0 00-.673 2.417A4.71 4.71 0 0015.027 42a4.715 4.715 0 004.704-4.704c0-.864-.233-1.684-.647-2.374h10.479c-.415.699-.648 1.51-.648 2.374A4.71 4.71 0 0033.62 42a4.715 4.715 0 004.704-4.704 4.715 4.715 0 00-4.704-4.705H11.608a2.437 2.437 0 01-2.434-2.434v-3.16a4.82 4.82 0 002.434.657zm5.801 9.633a2.378 2.378 0 01-2.374 2.374 2.383 2.383 0 01-2.373-2.374 2.384 2.384 0 012.373-2.374 2.378 2.378 0 012.374 2.374zm18.593 0a2.378 2.378 0 01-2.374 2.374 2.384 2.384 0 01-2.373-2.374 2.384 2.384 0 012.373-2.374 2.378 2.378 0 012.374 2.374zM34.75 25.323H11.608a2.437 2.437 0 01-2.434-2.434V10.295l28.01 3.859v8.726a2.439 2.439 0 01-2.434 2.443z" fill="#595959"/></svg><svg viewBox="0 0 22 16" id="categories" xmlns="http://www.w3.org/2000/svg"><path d="M0 1.25h22M0 8.25h18M0 15.25h22"/></svg><svg fill="none" viewBox="0 0 17 17" id="kabinet" xmlns="http://www.w3.org/2000/svg"><g clip-path="url(#cclip0_196_44)" fill="#FC413C"><path d="M8.5 17A8.503 8.503 0 010 8.5c0-2.27.884-4.405 2.49-6.01A8.444 8.444 0 018.5 0c2.27 0 4.405.884 6.01 2.49A8.444 8.444 0 0117 8.5a8.506 8.506 0 01-3.004 6.484A8.502 8.502 0 018.5 17zm0-15.938C4.399 1.063 1.062 4.4 1.062 8.5a7.442 7.442 0 002.629 5.674A7.44 7.44 0 0015.937 8.5c0-4.101-3.336-7.438-7.437-7.438z"/><path d="M8.5 8.5a3.191 3.191 0 01-3.188-3.188A3.191 3.191 0 018.5 2.126a3.191 3.191 0 013.188 3.188A3.191 3.191 0 018.5 8.5zm0-5.313a2.127 2.127 0 00-2.125 2.126c0 1.171.953 2.125 2.125 2.125a2.127 2.127 0 002.125-2.125A2.127 2.127 0 008.5 3.188z"/><path d="M13.653 15.11a.533.533 0 01-.516-.66 4.8 4.8 0 00.144-1.169c0-2.6-2.113-4.743-4.711-4.78L8.5 8.5h-.07c-2.598.038-4.711 2.182-4.711 4.781 0 .396.048.789.143 1.168a.531.531 0 01-1.03.26 5.865 5.865 0 01-.176-1.428c0-1.546.598-3.004 1.685-4.105a5.809 5.809 0 014.076-1.738H8.583a5.809 5.809 0 014.076 1.738 5.81 5.81 0 011.685 4.105c0 .483-.06.963-.176 1.427a.531.531 0 01-.515.402z"/></g><defs><clipPath id="cclip0_196_44"><path fill="#fff" d="M0 0h17v17H0z"/></clipPath></defs></svg><svg fill="none" viewBox="0 0 6 15" id="left" xmlns="http://www.w3.org/2000/svg"><path d="M5.865.183a.79.79 0 010 .884L1.115 7.5l4.75 6.433a.79.79 0 010 .884c-.18.244-.472.244-.653 0L.135 7.942A.751.751 0 010 7.5c0-.16.045-.32.135-.442L5.212.183c.18-.244.472-.244.653 0z" fill="#FFF"/></svg><svg fill="none" viewBox="0 0 14 14" id="location" xmlns="http://www.w3.org/2000/svg"><path d="M7 3.01a2.602 2.602 0 00-2.6 2.599c0 1.433 1.167 2.599 2.6 2.599s2.6-1.166 2.6-2.6C9.6 4.176 8.432 3.01 7 3.01zm0 4.103c-.83 0-1.505-.675-1.505-1.504 0-.83.675-1.505 1.505-1.505.83 0 1.505.675 1.505 1.505 0 .83-.675 1.504-1.505 1.504z" fill="#437FC8"/><path d="M7 0a5.615 5.615 0 00-5.608 5.609v.155c0 1.564.896 3.386 2.665 5.417a23.051 23.051 0 002.6 2.541L7 14l.344-.278a23.053 23.053 0 002.6-2.541c1.768-2.03 2.665-3.853 2.665-5.417v-.155A5.615 5.615 0 007 0zm4.514 5.764c0 2.643-3.405 5.843-4.514 6.814-1.109-.972-4.514-4.171-4.514-6.814v-.155A4.52 4.52 0 017 1.094a4.52 4.52 0 014.514 4.515v.155z" fill="#437FC8"/></svg><svg fill="none" viewBox="0 0 6 15" id="right" xmlns="http://www.w3.org/2000/svg"><path d="M.135 14.817a.789.789 0 010-.884L4.885 7.5.136 1.067a.789.789 0 010-.884c.18-.244.472-.244.653 0l5.077 6.875A.75.75 0 016 7.5a.75.75 0 01-.135.442L.788 14.817c-.18.244-.472.244-.653 0z" fill="#FFF"/></svg><svg fill="none" viewBox="0 0 20 21" id="search" xmlns="http://www.w3.org/2000/svg"><g clip-path="url(#gclip0_196_59)" fill="#1A467C"><path d="M8.808.267C3.95.267 0 4.22 0 9.075c0 4.857 3.951 8.808 8.808 8.808 4.856 0 8.807-3.951 8.807-8.808 0-4.856-3.95-8.808-8.807-8.808zm0 15.99c-3.96 0-7.182-3.222-7.182-7.182 0-3.96 3.222-7.182 7.182-7.182 3.96 0 7.181 3.222 7.181 7.182 0 3.96-3.222 7.181-7.181 7.181z"/><path d="M19.762 18.88l-4.661-4.662a.813.813 0 10-1.15 1.15l4.661 4.661a.81.81 0 001.15 0 .813.813 0 000-1.15z"/></g><defs><clipPath id="gclip0_196_59"><path fill="#fff" transform="translate(0 .267)" d="M0 0h20v20H0z"/></clipPath></defs></svg><svg fill="none" viewBox="0 0 26 26" id="telegram" xmlns="http://www.w3.org/2000/svg"><g clip-path="url(#hclip0_196_68)"><path d="M25.487 3.263c-.305-.374-.763-.58-1.288-.58-.286 0-.588.06-.899.18L2.138 10.94c-1.123.428-1.274 1.072-1.265 1.417.01.345.198.979 1.343 1.343l.02.006 4.39 1.256L9 21.752c.324.925 1.05 1.5 1.897 1.5.533 0 1.058-.223 1.517-.646l2.715-2.5 3.938 3.17.002.002.037.03.01.008c.438.34.916.519 1.383.52.912 0 1.638-.676 1.85-1.72l3.467-17.121c.14-.688.022-1.303-.329-1.732zM8.095 14.725l8.469-4.326-5.274 5.603a.73.73 0 00-.177.326l-1.017 4.119-2.001-5.722zm3.327 6.803a1.39 1.39 0 01-.106.088l.943-3.821 1.716 1.382-2.553 2.351zM24.38 4.704l-3.467 17.121c-.034.164-.14.545-.414.545-.136 0-.306-.074-.48-.208l-4.462-3.593-.002-.001-2.656-2.139 7.626-8.102a.732.732 0 00-.866-1.155L7.116 13.58l-4.449-1.273 21.156-8.076c.178-.068.303-.082.376-.082.045 0 .124.005.154.041.039.048.089.21.027.514z" fill="#437FC8"/></g><defs><clipPath id="hclip0_196_68"><path fill="#fff" transform="translate(.873 .78)" d="M0 0h25v25H0z"/></clipPath></defs></svg><svg fill="none" viewBox="0 0 26 25" id="viber" xmlns="http://www.w3.org/2000/svg"><path d="M24.291 8.824a8.76 8.76 0 00-2.59-6.233A8.761 8.761 0 0015.467 0H10.24C7.891 0 5.677.92 4.006 2.591a8.762 8.762 0 00-2.591 6.233v4.11c0 1.818.555 3.567 1.604 5.058a8.854 8.854 0 003.623 2.994v2.36c0 1.22.683 1.654 1.268 1.654.418 0 .836-.206 1.244-.613l2.63-2.63h3.683c2.348 0 4.561-.92 6.232-2.591a8.761 8.761 0 002.591-6.233v-4.11zm-8.823 11.468H11.48a.732.732 0 00-.518.214L8.12 23.351l-.011.011v-2.866a.732.732 0 00-.472-.683c-2.844-1.086-4.755-3.85-4.755-6.88v-4.11c0-1.956.768-3.802 2.162-5.196a7.306 7.306 0 015.197-2.162h5.228c1.956 0 3.802.768 5.196 2.162a7.305 7.305 0 012.162 5.197v4.11c0 4.057-3.3 7.358-7.358 7.358z" fill="#437FC8"/><path d="M14.801 11.98a.732.732 0 00-1.035 0l-.592.59-2.293-2.292.592-.591a.733.733 0 000-1.036L8.7 5.877a.732.732 0 00-1.035 0L5.722 7.82a2.697 2.697 0 000 3.81l6.102 6.102a2.676 2.676 0 001.905.786c.72 0 1.397-.28 1.905-.786l1.941-1.942a.733.733 0 000-1.036l-2.774-2.774zm-.203 4.715c-.23.23-.54.357-.87.357a1.22 1.22 0 01-.868-.357l-6.102-6.102a1.23 1.23 0 010-1.738L8.182 7.43l1.737 1.738-.591.591a.733.733 0 000 1.036l3.328 3.329a.733.733 0 001.036 0l.592-.592 1.737 1.738-1.423 1.424zM13.031 3.24a.732.732 0 100 1.465c1.676 0 3.252.653 4.438 1.838a6.234 6.234 0 011.838 4.437.732.732 0 001.465 0 7.69 7.69 0 00-2.267-5.473A7.69 7.69 0 0013.03 3.24z" fill="#437FC8"/><path d="M16.169 10.98a.733.733 0 001.465 0 4.608 4.608 0 00-4.603-4.602.732.732 0 100 1.465 3.141 3.141 0 013.138 3.137z" fill="#437FC8"/></svg></svg>