<?xml version="1.0" encoding="utf-8"?><svg viewBox="0 0 64 73" xmlns="http://www.w3.org/2000/svg" xmlns:xlink="http://www.w3.org/1999/xlink"><style>:root>svg{display:none}:root>svg:target{display:block}</style><svg viewBox="0 0 31 9" id="arrow-right" xmlns="http://www.w3.org/2000/svg"><path d="M29.951 4.91a.5.5 0 000-.707L26.77 1.021a.5.5 0 10-.708.707l2.829 2.829-2.829 2.828a.5.5 0 10.707.707l3.183-3.182zM0 5.057h29.598v-1H0v1z"/></svg><svg fill="none" viewBox="0 0 40 42" id="cart" xmlns="http://www.w3.org/2000/svg"><path d="M11.608 27.654H34.75a4.774 4.774 0 004.765-4.765v-9.737-.034-.07c0-.017 0-.034-.008-.051 0-.017-.009-.043-.009-.06 0-.018-.009-.035-.009-.052-.008-.018-.008-.035-.017-.06-.009-.018-.009-.035-.017-.052-.009-.018-.009-.035-.017-.052-.01-.018-.018-.035-.026-.06-.009-.018-.018-.035-.026-.044a12.5 12.5 0 01-.026-.052c-.009-.017-.017-.026-.026-.043-.009-.017-.026-.034-.035-.052a.15.15 0 00-.034-.043c-.009-.017-.026-.026-.035-.043-.008-.017-.025-.026-.034-.043-.009-.017-.026-.026-.035-.035l-.043-.043c-.017-.008-.026-.026-.043-.034-.017-.009-.035-.026-.052-.035-.017-.009-.026-.017-.043-.026-.017-.008-.034-.017-.052-.034l-.051-.026-.052-.026a12.5 12.5 0 01-.052-.026c-.017-.009-.035-.009-.052-.017a.16.16 0 00-.06-.018c-.018 0-.035-.008-.044-.008-.025-.009-.043-.009-.069-.009-.008 0-.017-.008-.034-.008L9.183 7.947V3.856c0-.043 0-.087-.009-.121 0-.009 0-.017-.008-.035 0-.026-.01-.051-.01-.077-.008-.026-.008-.043-.016-.07 0-.017-.009-.025-.009-.043l-.026-.077c0-.009-.008-.026-.008-.035a.259.259 0 00-.035-.069c-.009-.008-.009-.026-.017-.034a.18.18 0 00-.035-.052c-.008-.017-.017-.026-.026-.043-.008-.018-.017-.026-.026-.043-.008-.018-.025-.035-.034-.052a31.622 31.622 0 00-.026-.026l-.052-.052-.026-.026c-.017-.017-.034-.034-.06-.052-.009-.008-.026-.017-.035-.025-.017-.018-.034-.026-.051-.044a.795.795 0 00-.07-.043c-.008-.008-.017-.008-.025-.017l-.113-.052L2.105.092A1.164 1.164 0 00.577.714c-.25.595.026 1.277.621 1.528l5.646 2.382v25.533a4.77 4.77 0 004.151 4.722 4.709 4.709 0 00-.673 2.417A4.71 4.71 0 0015.027 42a4.715 4.715 0 004.704-4.704c0-.864-.233-1.684-.647-2.374h10.479c-.415.699-.648 1.51-.648 2.374A4.71 4.71 0 0033.62 42a4.715 4.715 0 004.704-4.704 4.715 4.715 0 00-4.704-4.705H11.608a2.437 2.437 0 01-2.434-2.434v-3.16a4.82 4.82 0 002.434.657zm5.801 9.633a2.378 2.378 0 01-2.374 2.374 2.383 2.383 0 01-2.373-2.374 2.384 2.384 0 012.373-2.374 2.378 2.378 0 012.374 2.374zm18.593 0a2.378 2.378 0 01-2.374 2.374 2.384 2.384 0 01-2.373-2.374 2.384 2.384 0 012.373-2.374 2.378 2.378 0 012.374 2.374zM34.75 25.323H11.608a2.437 2.437 0 01-2.434-2.434V10.295l28.01 3.859v8.726a2.439 2.439 0 01-2.434 2.443z" fill="#595959"/></svg><svg viewBox="0 0 22 16" id="categories" xmlns="http://www.w3.org/2000/svg"><path d="M0 1.25h22M0 8.25h18M0 15.25h22"/></svg><svg fill="none" viewBox="0 0 21 21" id="chat-bubbles" xmlns="http://www.w3.org/2000/svg"><g clip-path="url(#dclip0_88_91)" fill="#6E6E6E"><path d="M20.292 12.436c0-1.789-1.252-3.35-3.116-4.194.11.39.173.792.184 1.206.186.11.366.23.534.36.94.725 1.459 1.658 1.459 2.628 0 .969-.517 1.902-1.459 2.626-1.031.796-2.418 1.234-3.904 1.234-1.002 0-1.958-.2-2.792-.572a10.54 10.54 0 01-1.61.189c1.138.854 2.69 1.381 4.402 1.381a7.77 7.77 0 003.032-.598l2.294 1.171-.463-2.34c.898-.84 1.439-1.917 1.439-3.091z"/><path d="M16.708 8.794a5.023 5.023 0 00-.184-1.206c-.801-2.849-4.09-4.984-8.023-4.984C3.967 2.605.29 5.44.29 8.936c0 1.53.704 2.932 1.875 4.028l-.604 3.048 2.989-1.525a10.132 10.132 0 004.385.772 10.439 10.439 0 001.61-.19c3.544-.7 6.164-3.18 6.164-6.133l-.002-.142zm-3.12 3.566c-1.244.96-2.886 1.52-4.662 1.598a9.42 9.42 0 01-1.24-.025c-1.626-.136-3.12-.682-4.272-1.571-1.225-.945-1.9-2.16-1.9-3.424 0-1.264.675-2.48 1.9-3.424C4.757 4.478 6.564 3.907 8.5 3.907c1.938 0 3.745.57 5.087 1.607.608.468 1.08 1.004 1.402 1.578.204.365.347.746.427 1.135.047.234.07.471.07.71 0 1.263-.673 2.479-1.898 3.424z"/><path d="M11.413 9.854a.898.898 0 100-1.796.898.898 0 000 1.796zM8.5 9.854a.898.898 0 100-1.796.898.898 0 000 1.796zM5.589 9.854a.899.899 0 100-1.797.899.899 0 000 1.797z"/></g><defs><clipPath id="dclip0_88_91"><path fill="#fff" transform="translate(.292 .236)" d="M0 0h20v20H0z"/></clipPath></defs></svg><svg fill="none" viewBox="0 0 43 43" id="class" xmlns="http://www.w3.org/2000/svg"><path d="M38.93 13.551a3.182 3.182 0 00-3.513-3.515A3.19 3.19 0 0031.9 6.519a3.187 3.187 0 00-5.424-2.601l-2.405 2.405c-.358-.477-.75-.929-1.17-1.35L20.087 2.16a5.675 5.675 0 00-8.026 0 .702.702 0 000 .994l1.02 1.02a10.544 10.544 0 012.71 10.207 11.93 11.93 0 00-.42 3.138v4.534l-1.406 1.406-.206-.206a.703.703 0 00-.995 0L10.45 25.57l-.206-.206a.703.703 0 00-.994 0L.812 33.8l.995.995 7.94-7.94 11.662 11.661-3.019 3.019.995.994 3.515-3.516a.703.703 0 000-.994l-.909-.909 2.316-2.315a.702.702 0 000-.995l-1.613-1.612 1.407-1.406h5.333a.704.704 0 00.498-.206l7.03-7.031-.027-.028a3.19 3.19 0 00.38-.324l4.218-4.219a3.188 3.188 0 00-2.602-5.423zm-3.167-2.13a1.782 1.782 0 011.26 3.043l-4.219 4.22a1.783 1.783 0 01-2.52-2.522l4.218-4.219a1.778 1.778 0 011.26-.521zm-2.255-2.993a1.785 1.785 0 010 2.52l-4.22 4.22a1.783 1.783 0 11-2.52-2.522l4.218-4.219a1.785 1.785 0 012.521 0zM27.47 4.912a1.783 1.783 0 012.52 2.521l-4.218 4.219a1.784 1.784 0 01-3.043-1.26 1.783 1.783 0 01.522-1.261l4.219-4.22zm-6.474 31.204l-9.553-9.553 1.818-1.818 9.553 9.552-1.818 1.819zm8.146-6.74H23.81a.702.702 0 00-.497.206L21.7 31.194l-6.74-6.74 1.612-1.612a.702.702 0 00.206-.498V17.52c0-.935.125-1.866.37-2.768A11.955 11.955 0 0014.077 3.18l-.481-.481a4.276 4.276 0 015.498.456l2.813 2.813c.422.422.81.877 1.16 1.36l-.808.81a3.187 3.187 0 002.6 5.422 3.172 3.172 0 00.357 1.854v.553a11.226 11.226 0 01-3.309 7.99l.994.995a12.612 12.612 0 003.697-8.194 3.173 3.173 0 001.779.32 3.183 3.183 0 003.515 3.513 3.183 3.183 0 002.56 3.478l-5.308 5.308zM40.54 17.98l-4.219 4.219a1.783 1.783 0 01-2.521-2.522l4.218-4.218a1.783 1.783 0 012.522 2.521zM40.684 34.297a3.52 3.52 0 01-3.515-3.515.703.703 0 00-1.406 0 3.52 3.52 0 01-3.516 3.515.703.703 0 100 1.407 3.52 3.52 0 013.516 3.515.703.703 0 101.406 0 3.52 3.52 0 013.515-3.515.703.703 0 000-1.407zm-4.218 2.39A4.96 4.96 0 0034.78 35a4.96 4.96 0 001.686-1.686c.416.69.995 1.269 1.685 1.686-.69.416-1.269.995-1.685 1.685zM42.09 4.063a2.816 2.816 0 01-2.812-2.813.703.703 0 10-1.406 0 2.816 2.816 0 01-2.813 2.813.703.703 0 000 1.406 2.816 2.816 0 012.813 2.813.703.703 0 001.406 0 2.816 2.816 0 012.813-2.813.703.703 0 100-1.406zm-3.515 1.889a4.254 4.254 0 00-1.186-1.186c.47-.313.873-.716 1.186-1.186.313.47.716.873 1.186 1.186-.47.313-.873.716-1.186 1.186z" fill="#404040"/><path d="M4.825 18.125a.703.703 0 001.406 0 3.52 3.52 0 013.516-3.515.703.703 0 000-1.406A3.52 3.52 0 016.23 9.688a.703.703 0 00-1.406 0 3.52 3.52 0 01-3.516 3.516.703.703 0 000 1.406 3.52 3.52 0 013.516 3.515zm.703-5.904a4.96 4.96 0 001.686 1.686c-.69.416-1.27.995-1.686 1.685a4.962 4.962 0 00-1.686-1.685 4.96 4.96 0 001.686-1.686z" fill="#404040"/></svg><svg fill="none" viewBox="0 0 15 15" id="empty-star" xmlns="http://www.w3.org/2000/svg"><path d="M14.482 5.076a1.013 1.013 0 00-.617-.33l-3.72-.514L8.671.714a1.01 1.01 0 00-1.865 0L5.335 4.232l-3.721.514a1.013 1.013 0 00-.535 1.76l2.804 2.5-.576 3.923a1 1 0 00.464 1.006.997.997 0 001.104-.02l2.864-1.948 2.865 1.95a1.011 1.011 0 001.568-.986l-.576-3.924 2.803-2.5a1.013 1.013 0 00.083-1.431zm-3.753 3.366a.5.5 0 00-.161.446l.6 4.2-3.146-2.14a.5.5 0 00-.562 0l-3.164 2.126.615-4.188a.5.5 0 00-.161-.444l-3-2.704 4.003-.553a.5.5 0 00.393-.302l1.6-3.79a.022.022 0 01.003.007l1.583 3.78a.5.5 0 00.393.303l4.008.577-3.004 2.682z" fill="#FFA800"/></svg><svg fill="none" viewBox="0 0 46 51" id="exchange" xmlns="http://www.w3.org/2000/svg"><path d="M22.325 47.532l-1.185 1.186c-.527.526-.147 1.422.589 1.422a.83.83 0 00.59-.243l2.603-2.605a.833.833 0 000-1.178l-2.604-2.604a.833.833 0 00-1.178 1.178l1.177 1.177c-11.27-.187-20.38-9.411-20.38-20.725 0-4.674 1.519-9.087 4.392-12.76a.833.833 0 10-1.313-1.027C1.912 15.323.271 20.09.271 25.14c0 12.265 9.832 22.21 22.054 22.392zM7.742 10.412c-.746 0-1.12-.917-.576-1.437a.833.833 0 011.196.006c.528.549.095 1.43-.62 1.43zM27.25 30.035h2.5a.833.833 0 010 1.667h-2.5a.833.833 0 010-1.667zm-13.854 6.042c0-.46.373-.833.833-.833h16.875c.919 0 1.667-.748 1.667-1.667V16.703c0-.919-.748-1.667-1.667-1.667h-4.27v5.834a.834.834 0 01-1.225.736l-2.943-1.564-2.942 1.563a.834.834 0 01-1.224-.735v-2.917a.833.833 0 011.666 0v1.53l2.11-1.12a.833.833 0 01.782 0l2.108 1.12v-4.447H14.23c-.919 0-1.667.748-1.667 1.667v14.792a.833.833 0 01-1.666 0V16.703a3.337 3.337 0 013.333-3.333h16.875a3.337 3.337 0 013.333 3.333v16.875a3.337 3.337 0 01-3.333 3.333H14.229a.833.833 0 01-.833-.833zm30-10.938c0-11.313-9.11-20.537-20.38-20.724l1.177 1.177c.527.526.147 1.423-.59 1.423a.83.83 0 01-.588-.245L20.41 4.167a.833.833 0 010-1.178L23.015.385a.833.833 0 111.178 1.178L23.007 2.75c12.214.181 22.055 10.119 22.055 22.391 0 5.051-1.64 9.819-4.746 13.788a.833.833 0 11-1.312-1.027c2.873-3.673 4.392-8.086 4.392-12.76zm-5.202 14.988c.3.313.331.835-.045 1.195a.833.833 0 11-1.156-1.201.834.834 0 011.2.006z" fill="#404040"/></svg><svg fill="none" viewBox="0 0 49 50" id="experience" xmlns="http://www.w3.org/2000/svg"><g clip-path="url(#hclip0_88_559)" fill="#404040"><path d="M24.5.151C10.97.151 0 11.121 0 24.651c0 13.531 10.97 24.5 24.5 24.5S49 38.182 49 24.651C48.985 11.127 38.024.167 24.5.151zm0 47.367c-12.629 0-22.867-10.238-22.867-22.867 0-12.628 10.238-22.866 22.867-22.866 12.629 0 22.867 10.238 22.867 22.866-.015 12.623-10.244 22.853-22.867 22.867z"/><path d="M13.142 23.1a.817.817 0 00.966-.632c.102-.485.239-.96.408-1.425a.817.817 0 10-1.535-.557c-.194.537-.351 1.087-.468 1.646a.817.817 0 00.629.967zM15.232 18.771a.816.816 0 00.663-.337c.29-.4.608-.78.95-1.138a.817.817 0 00-1.178-1.13c-.395.409-.76.845-1.094 1.306a.816.816 0 00.66 1.296v.003zM18.757 15.58a.811.811 0 00.408-.11c.426-.25.869-.468 1.326-.654a.817.817 0 10-.616-1.514c-.527.215-1.04.467-1.533.754a.817.817 0 00.409 1.523l.006.002zM36.27 21.292c-.004-.022 0-.042-.005-.063-.015-.052-.035-.104-.05-.156-.016-.052-.04-.117-.059-.176-.099-.305-.21-.607-.332-.906l-.066-.164c-.03-.068-.053-.137-.082-.204a.692.692 0 00-.047-.064c-.456-1-1.044-1.934-1.75-2.777-.01-.013-.012-.03-.023-.042a12.381 12.381 0 00-1.19-1.221.858.858 0 00-.081-.048 12.258 12.258 0 00-2.68-1.796.599.599 0 00-.07-.053c-.157-.076-.318-.143-.48-.212-.046-.02-.091-.042-.139-.062-.32-.133-.64-.257-.969-.362h-.025a12.208 12.208 0 00-3.26-.558c-.024 0-.046-.016-.07-.017h-.253c-.047 0-.092-.007-.138-.007-.013 0-.024.007-.037.007-.427 0-.854.02-1.279.063a.816.816 0 00.17 1.624c.416-.043.836-.06 1.255-.055 1.369.01 2.722.288 3.985.816l.089.04a10.647 10.647 0 013.084 2.034c.22.208.43.425.63.654a10.62 10.62 0 011.861 2.891c.018.041.034.082.05.124.11.26.207.526.293.797.017.051.035.102.05.152.308 1.005.465 2.05.465 3.1 0 .327-.02.649-.05.967a10.605 10.605 0 01-3.794 7.2l-.043.037a10.601 10.601 0 01-3.545 1.923c-.037.012-.075.021-.112.032-.269.082-.542.151-.817.212l-.202.043c-5.668 1.123-11.191-2.503-12.413-8.15l1.827.921a.817.817 0 10.73-1.461l-3.267-1.634a.806.806 0 00-.356-.082.215.215 0 00-.036-.008.732.732 0 00-.07.02.803.803 0 00-.634.429L10.7 28.366a.817.817 0 101.462.73l.558-1.115c.232.82.55 1.615.95 2.368a.64.64 0 00.021.067c.269.504.572.987.908 1.447.02.028.053.04.076.064A12.393 12.393 0 0016.88 34.2a.77.77 0 00.095.11c.448.352.92.672 1.414.958.06.036.126.063.193.082.912.508 1.886.897 2.896 1.159a.732.732 0 00.074.035c.554.137 1.116.235 1.684.293h.081c.391.04.787.061 1.187.061.665-.004 1.33-.063 1.985-.176h.01a.744.744 0 00.143-.012c.071-.013.14-.032.211-.046.091-.017.18-.037.27-.056.31-.067.614-.146.915-.236.048-.014.096-.026.142-.04.047-.015.082-.023.12-.035.018-.006.03-.02.048-.028a12.21 12.21 0 002.978-1.453c.011-.008.023-.01.035-.017.313-.211.613-.444.907-.685l.056-.047c.128-.106.258-.21.38-.32a.705.705 0 00.06-.081 12.327 12.327 0 002.05-2.43.855.855 0 00.082-.101c.302-.483.57-.987.802-1.508.008-.018.006-.037.012-.054.44-1.002.742-2.06.899-3.142a.766.766 0 00.026-.082c.014-.099.02-.199.032-.299a13.701 13.701 0 00.087-1.404v-.048-.015a12.209 12.209 0 00-.483-3.291z"/><path d="M24.5 17.301a.817.817 0 00-.817.817v6.533c0 .217.086.425.24.578l3.266 3.266a.817.817 0 001.155-1.155l-3.027-3.027v-6.195a.817.817 0 00-.817-.817z"/></g><defs><clipPath id="hclip0_88_559"><path fill="#fff" transform="translate(0 .151)" d="M0 0h49v49H0z"/></clipPath></defs></svg><svg fill="none" viewBox="0 0 17 17" id="kabinet" xmlns="http://www.w3.org/2000/svg"><g clip-path="url(#iclip0_196_44)" fill="#FC413C"><path d="M8.5 17A8.503 8.503 0 010 8.5c0-2.27.884-4.405 2.49-6.01A8.444 8.444 0 018.5 0c2.27 0 4.405.884 6.01 2.49A8.444 8.444 0 0117 8.5a8.506 8.506 0 01-3.004 6.484A8.502 8.502 0 018.5 17zm0-15.938C4.399 1.063 1.062 4.4 1.062 8.5a7.442 7.442 0 002.629 5.674A7.44 7.44 0 0015.937 8.5c0-4.101-3.336-7.438-7.437-7.438z"/><path d="M8.5 8.5a3.191 3.191 0 01-3.188-3.188A3.191 3.191 0 018.5 2.126a3.191 3.191 0 013.188 3.188A3.191 3.191 0 018.5 8.5zm0-5.313a2.127 2.127 0 00-2.125 2.126c0 1.171.953 2.125 2.125 2.125a2.127 2.127 0 002.125-2.125A2.127 2.127 0 008.5 3.188z"/><path d="M13.653 15.11a.533.533 0 01-.516-.66 4.8 4.8 0 00.144-1.169c0-2.6-2.113-4.743-4.711-4.78L8.5 8.5h-.07c-2.598.038-4.711 2.182-4.711 4.781 0 .396.048.789.143 1.168a.531.531 0 01-1.03.26 5.865 5.865 0 01-.176-1.428c0-1.546.598-3.004 1.685-4.105a5.809 5.809 0 014.076-1.738H8.583a5.809 5.809 0 014.076 1.738 5.81 5.81 0 011.685 4.105c0 .483-.06.963-.176 1.427a.531.531 0 01-.515.402z"/></g><defs><clipPath id="iclip0_196_44"><path fill="#fff" d="M0 0h17v17H0z"/></clipPath></defs></svg><svg fill="none" viewBox="0 0 6 15" id="left" xmlns="http://www.w3.org/2000/svg"><path d="M5.865.183a.79.79 0 010 .884L1.115 7.5l4.75 6.433a.79.79 0 010 .884c-.18.244-.472.244-.653 0L.135 7.942A.751.751 0 010 7.5c0-.16.045-.32.135-.442L5.212.183c.18-.244.472-.244.653 0z" fill="#FFF"/></svg><svg fill="none" viewBox="0 0 14 14" id="location" xmlns="http://www.w3.org/2000/svg"><path d="M7 3.01a2.602 2.602 0 00-2.6 2.599c0 1.433 1.167 2.599 2.6 2.599s2.6-1.166 2.6-2.6C9.6 4.176 8.432 3.01 7 3.01zm0 4.103c-.83 0-1.505-.675-1.505-1.504 0-.83.675-1.505 1.505-1.505.83 0 1.505.675 1.505 1.505 0 .83-.675 1.504-1.505 1.504z" fill="#437FC8"/><path d="M7 0a5.615 5.615 0 00-5.608 5.609v.155c0 1.564.896 3.386 2.665 5.417a23.051 23.051 0 002.6 2.541L7 14l.344-.278a23.053 23.053 0 002.6-2.541c1.768-2.03 2.665-3.853 2.665-5.417v-.155A5.615 5.615 0 007 0zm4.514 5.764c0 2.643-3.405 5.843-4.514 6.814-1.109-.972-4.514-4.171-4.514-6.814v-.155A4.52 4.52 0 017 1.094a4.52 4.52 0 014.514 4.515v.155z" fill="#437FC8"/></svg><svg fill="none" viewBox="0 0 50 51" id="medal" xmlns="http://www.w3.org/2000/svg"><g clip-path="url(#lclip0_88_600)" fill="#404040"><path d="M43.649 21.52l-1.061-2.335a.5.5 0 010-.415l1.06-2.335c.35-.769.17-1.673-.447-2.25l-1.874-1.75a.5.5 0 01-.158-.384l.086-2.564a1.964 1.964 0 00-1.274-1.906l-2.401-.902a.5.5 0 01-.293-.293l-.901-2.401a1.966 1.966 0 00-1.907-1.274l-2.564.087a.5.5 0 01-.383-.16L29.78.766a1.964 1.964 0 00-2.249-.447l-2.335 1.06a.502.502 0 01-.414 0L22.446.319a1.964 1.964 0 00-2.25.447l-1.75 1.874a.5.5 0 01-.384.159L15.5 2.71a1.965 1.965 0 00-1.907 1.274l-.901 2.402a.5.5 0 01-.293.293l-2.402.9a1.964 1.964 0 00-1.274 1.907l.087 2.564a.502.502 0 01-.159.383l-1.874 1.752a1.964 1.964 0 00-.447 2.249l1.06 2.335a.5.5 0 010 .415L6.33 21.52c-.35.769-.17 1.672.447 2.25l1.874 1.75a.502.502 0 01.159.384l-.087 2.563a1.964 1.964 0 001.274 1.907l2.402.901a.502.502 0 01.293.293l.901 2.402c.03.078.063.154.102.227l-6.025 9.286a1.338 1.338 0 00-.006 1.463c.288.453.796.688 1.328.613l4.904-.685c.066-.01.131.021.166.077l2.806 4.547c.245.397.67.638 1.136.643h.016c.46 0 .883-.23 1.134-.616l7.864-12.122.514.234c.769.35 1.673.17 2.25-.447l1.751-1.874a.502.502 0 01.383-.159l2.564.087a1.964 1.964 0 001.906-1.274l.901-2.402a.5.5 0 01.293-.293l2.402-.901a1.964 1.964 0 001.274-1.907l-.087-2.563a.5.5 0 01.16-.384L43.2 23.77c.617-.577.797-1.48.448-2.249zM18.02 48.578l-2.713-4.396a1.633 1.633 0 00-1.615-.76l-4.661.652 5.791-8.926c.214.07.442.103.676.096l2.563-.087a.5.5 0 01.383.159l1.752 1.874a1.964 1.964 0 002.249.447l2.336-1.06a.5.5 0 01.414 0l.472.214-7.647 11.787zm24.18-25.88l-1.874 1.753a1.966 1.966 0 00-.622 1.502l.086 2.564a.5.5 0 01-.324.486l-2.402.9c-.531.2-.95.619-1.15 1.15l-.901 2.402a.502.502 0 01-.486.325l-2.564-.087a1.967 1.967 0 00-1.502.623l-1.752 1.873a.5.5 0 01-.573.114l-2.335-1.06a1.964 1.964 0 00-1.626 0l-2.336 1.06a.5.5 0 01-.573-.113l-1.751-1.874a1.965 1.965 0 00-1.503-.623l-2.564.087a.5.5 0 01-.486-.325l-.9-2.401c-.2-.532-.62-.95-1.15-1.15l-2.402-.901a.5.5 0 01-.325-.486l.087-2.564a1.964 1.964 0 00-.623-1.502l-1.873-1.752a.5.5 0 01-.114-.573l1.06-2.335a1.964 1.964 0 000-1.627l-1.06-2.335a.5.5 0 01.114-.573l1.873-1.752c.415-.387.642-.935.623-1.502l-.087-2.564a.5.5 0 01.325-.486l2.402-.9c.531-.2.95-.62 1.15-1.15l.9-2.402a.5.5 0 01.487-.325l2.563.086a1.96 1.96 0 001.503-.622l1.751-1.874a.5.5 0 01.573-.114l2.336 1.061c.517.235 1.109.235 1.626 0l2.335-1.06a.501.501 0 01.573.113l1.752 1.874c.387.415.937.643 1.502.623l2.564-.087a.503.503 0 01.486.325l.901 2.401c.2.532.619.95 1.15 1.15l2.402.901c.201.076.332.271.324.486l-.086 2.564c-.02.567.207 1.115.622 1.502l1.874 1.752a.5.5 0 01.114.573l-1.061 2.335a1.967 1.967 0 000 1.627l1.06 2.335a.5.5 0 01-.113.573z"/><path d="M37.64 19.725a.734.734 0 00-.813.643c-.697 6.002-5.786 10.529-11.838 10.529-6.056 0-11.146-4.53-11.84-10.535a.732.732 0 10-1.455.168c.78 6.745 6.495 11.831 13.295 11.831 6.796 0 12.511-5.083 13.294-11.824a.733.733 0 00-.643-.812zM24.989 5.594c-6.802 0-12.518 5.088-13.295 11.836a.733.733 0 001.455.168c.692-6.009 5.782-10.54 11.84-10.54 6.056 0 11.146 4.53 11.84 10.537a.732.732 0 101.454-.168C37.505 10.68 31.79 5.594 24.99 5.594zM37.59 36.21a.733.733 0 00-1.23.798l4.586 7.066-4.661-.65a1.632 1.632 0 00-1.615.758l-2.713 4.396-4.75-7.32a.732.732 0 10-1.228.798l4.846 7.469c.25.386.674.616 1.134.616h.015c.467-.005.891-.245 1.136-.642l2.806-4.548a.168.168 0 01.166-.077l4.905.685c.53.075 1.04-.16 1.328-.613a1.339 1.339 0 00-.006-1.462L37.59 36.21z"/></g><defs><clipPath id="lclip0_88_600"><path fill="#fff" transform="translate(0 .141)" d="M0 0h50v50H0z"/></clipPath></defs></svg><svg viewBox="0 0 25 24" id="ok" xmlns="http://www.w3.org/2000/svg"><path d="M12.5 0C9.055 0 6.25 2.691 6.25 6s2.804 6 6.25 6c3.448 0 6.25-2.691 6.25-6s-2.802-6-6.25-6zm0 10.5c-2.584 0-4.687-2.019-4.687-4.5s2.103-4.5 4.688-4.5c2.584 0 4.687 2.019 4.687 4.5s-2.103 4.5-4.687 4.5zM18.61 22.82l-5.469-7.5c-.29-.4-.986-.4-1.28 0l-5.468 7.5a.73.73 0 00.192 1.043.8.8 0 001.088-.183l4.828-6.622 4.83 6.622c.151.209.393.32.639.32.156 0 .31-.044.45-.137a.73.73 0 00.19-1.044z"/><path d="M20.233 12.363a.805.805 0 00-1.104 0c-3.658 3.51-9.603 3.51-13.258 0a.805.805 0 00-1.105 0 .73.73 0 000 1.06c2.133 2.046 4.935 3.07 7.735 3.07 2.8 0 5.601-1.024 7.732-3.07a.73.73 0 000-1.06z"/></svg><svg fill="none" viewBox="0 0 64 73" id="polygon" xmlns="http://www.w3.org/2000/svg"><path d="M29.225 1.257a5 5 0 015 0l26.61 15.363a5 5 0 012.5 4.33v30.727a5 5 0 01-2.5 4.33L34.225 71.37a5 5 0 01-5 0L2.615 56.007a5 5 0 01-2.5-4.33V20.95a5 5 0 012.5-4.33l26.61-15.363z" fill="#437FC8" fill-opacity=".29"/></svg><svg fill="none" viewBox="0 0 6 15" id="right" xmlns="http://www.w3.org/2000/svg"><path d="M.135 14.817a.789.789 0 010-.884L4.885 7.5.136 1.067a.789.789 0 010-.884c.18-.244.472-.244.653 0l5.077 6.875A.75.75 0 016 7.5a.75.75 0 01-.135.442L.788 14.817c-.18.244-.472.244-.653 0z" fill="#FFF"/></svg><svg fill="none" viewBox="0 0 20 21" id="search" xmlns="http://www.w3.org/2000/svg"><g clip-path="url(#pclip0_196_59)" fill="#1A467C"><path d="M8.808.267C3.95.267 0 4.22 0 9.075c0 4.857 3.951 8.808 8.808 8.808 4.856 0 8.807-3.951 8.807-8.808 0-4.856-3.95-8.808-8.807-8.808zm0 15.99c-3.96 0-7.182-3.222-7.182-7.182 0-3.96 3.222-7.182 7.182-7.182 3.96 0 7.181 3.222 7.181 7.182 0 3.96-3.222 7.181-7.181 7.181z"/><path d="M19.762 18.88l-4.661-4.662a.813.813 0 10-1.15 1.15l4.661 4.661a.81.81 0 001.15 0 .813.813 0 000-1.15z"/></g><defs><clipPath id="pclip0_196_59"><path fill="#fff" transform="translate(0 .267)" d="M0 0h20v20H0z"/></clipPath></defs></svg><svg fill="none" viewBox="0 0 15 15" id="star" xmlns="http://www.w3.org/2000/svg"><g clip-path="url(#qclip0_88_101)"><path d="M14.239 5.606a.743.743 0 00-.64-.511l-4.042-.367L7.96.988a.744.744 0 00-1.37 0l-1.596 3.74-4.042.367a.745.745 0 00-.423 1.302l3.055 2.679-.9 3.967a.744.744 0 001.106.804l3.485-2.083 3.484 2.083a.744.744 0 001.108-.804l-.9-3.967 3.054-2.68a.745.745 0 00.217-.79z" fill="#FFA800"/></g><defs><clipPath id="qclip0_88_101"><path fill="#fff" transform="translate(.275 .236)" d="M0 0h14v14H0z"/></clipPath></defs></svg><svg viewBox="0 0 26 26" id="telegram" xmlns="http://www.w3.org/2000/svg"><g clip-path="url(#rclip0_196_68)"><path d="M25.487 3.263c-.305-.374-.763-.58-1.288-.58-.286 0-.588.06-.899.18L2.138 10.94c-1.123.428-1.274 1.072-1.265 1.417.01.345.198.979 1.343 1.343l.02.006 4.39 1.256L9 21.752c.324.925 1.05 1.5 1.897 1.5.533 0 1.058-.223 1.517-.646l2.715-2.5 3.938 3.17.002.002.037.03.01.008c.438.34.916.519 1.383.52.912 0 1.638-.676 1.85-1.72l3.467-17.121c.14-.688.022-1.303-.329-1.732zM8.095 14.725l8.469-4.326-5.274 5.603a.73.73 0 00-.177.326l-1.017 4.119-2.001-5.722zm3.327 6.803a1.39 1.39 0 01-.106.088l.943-3.821 1.716 1.382-2.553 2.351zM24.38 4.704l-3.467 17.121c-.034.164-.14.545-.414.545-.136 0-.306-.074-.48-.208l-4.462-3.593-.002-.001-2.656-2.139 7.626-8.102a.732.732 0 00-.866-1.155L7.116 13.58l-4.449-1.273 21.156-8.076c.178-.068.303-.082.376-.082.045 0 .124.005.154.041.039.048.089.21.027.514z"/></g><defs><clipPath id="rclip0_196_68"><path fill="#fff" transform="translate(.873 .78)" d="M0 0h25v25H0z"/></clipPath></defs></svg><svg fill="none" viewBox="0 0 46 46" id="tools" xmlns="http://www.w3.org/2000/svg"><path d="M45.519 38.533a6.1 6.1 0 00-2.03-4.412l-13.883-12.52L41.881 9.325c.08-.024.16-.054.237-.095l2.658-1.403c.367-.194.613-.54.675-.951.063-.41-.07-.815-.364-1.109l-2.993-2.992a1.282 1.282 0 00-1.108-.365c-.41.062-.758.308-.951.676l-1.403 2.658a1.3 1.3 0 00-.097.239l-5.794 5.794a.69.69 0 00.975.975l5.317-5.317 1.393 1.393L26.83 22.426l-1.394-1.393 5.935-5.935a.69.69 0 00-.975-.975l-4.306 4.306-4.687-4.227A10.58 10.58 0 0018.888 3.24 10.603 10.603 0 007.603.843a.69.69 0 00-.24 1.131l5.413 5.414c.16.16.248.373.248.6 0 .226-.088.439-.248.6L9.26 12.102a.842.842 0 01-.6.248.842.842 0 01-.599-.248L2.649 6.689a.69.69 0 00-1.132.24 10.603 10.603 0 002.397 11.284A10.619 10.619 0 0014.663 20.8l3.623 3.962c-.174.34-.4.658-.68.937a3.732 3.732 0 01-3.988.838.69.69 0 00-.737.155l-8.443 8.443a5.869 5.869 0 000 8.29 5.823 5.823 0 004.145 1.717c1.566 0 3.038-.61 4.145-1.717l8.443-8.442a.69.69 0 00.155-.738 3.732 3.732 0 01.838-3.988 3.732 3.732 0 013.99-.839.69.69 0 00.736-.155l1.593-1.592c.48-.48.744-1.118.744-1.796 0-.678-.265-1.315-.744-1.795l-.678-.678.825-.824 13.935 12.569a4.732 4.732 0 011.575 3.423 4.732 4.732 0 01-1.397 3.5 4.742 4.742 0 01-3.483 1.398 4.734 4.734 0 01-3.418-1.552L25.48 30.585a.69.69 0 10-1.018.93l10.361 11.33a6.102 6.102 0 004.547 2.002 6.099 6.099 0 004.347-1.803 6.1 6.1 0 001.8-4.51zm-5.639-32.2l1.32-2.5 2.83 2.83-2.5 1.32-1.65-1.65zm-24.506 13.2a.69.69 0 00-.75-.18 9.236 9.236 0 01-9.735-2.114 9.224 9.224 0 01-2.415-8.773l4.613 4.612c.42.42.98.652 1.575.652.594 0 1.154-.231 1.574-.652l3.516-3.516c.42-.42.652-.98.652-1.574 0-.595-.232-1.154-.652-1.575L9.14 1.8a9.222 9.222 0 018.772 2.415 9.204 9.204 0 012.041 9.93.69.69 0 00.179.767l4.981 4.493-.652.653-.678-.678a2.522 2.522 0 00-1.795-.744c-.678 0-1.316.264-1.795.744L18.6 20.972a.69.69 0 00-.155.737c.183.473.263.967.25 1.455l-3.32-3.63zm12.134 7.162l-1.29 1.29a5.112 5.112 0 00-5.029 1.296 5.112 5.112 0 00-1.295 5.028l-8.14 8.14a4.453 4.453 0 01-3.17 1.313 4.453 4.453 0 01-3.17-1.313 4.488 4.488 0 010-6.34l8.14-8.14a5.112 5.112 0 005.028-1.296 5.112 5.112 0 001.296-5.028l1.29-1.29a1.16 1.16 0 011.64 0l1.166 1.165 2.368 2.369 1.166 1.165a1.16 1.16 0 010 1.64z" fill="#404040"/></svg><svg viewBox="0 0 26 25" id="viber" xmlns="http://www.w3.org/2000/svg"><path d="M24.291 8.824a8.76 8.76 0 00-2.59-6.233A8.761 8.761 0 0015.467 0H10.24C7.891 0 5.677.92 4.006 2.591a8.762 8.762 0 00-2.591 6.233v4.11c0 1.818.555 3.567 1.604 5.058a8.854 8.854 0 003.623 2.994v2.36c0 1.22.683 1.654 1.268 1.654.418 0 .836-.206 1.244-.613l2.63-2.63h3.683c2.348 0 4.561-.92 6.232-2.591a8.761 8.761 0 002.591-6.233v-4.11zm-8.823 11.468H11.48a.732.732 0 00-.518.214L8.12 23.351l-.011.011v-2.866a.732.732 0 00-.472-.683c-2.844-1.086-4.755-3.85-4.755-6.88v-4.11c0-1.956.768-3.802 2.162-5.196a7.306 7.306 0 015.197-2.162h5.228c1.956 0 3.802.768 5.196 2.162a7.305 7.305 0 012.162 5.197v4.11c0 4.057-3.3 7.358-7.358 7.358z"/><path d="M14.801 11.98a.732.732 0 00-1.035 0l-.592.59-2.293-2.292.592-.591a.733.733 0 000-1.036L8.7 5.877a.732.732 0 00-1.035 0L5.722 7.82a2.697 2.697 0 000 3.81l6.102 6.102a2.676 2.676 0 001.905.786c.72 0 1.397-.28 1.905-.786l1.941-1.942a.733.733 0 000-1.036l-2.774-2.774zm-.203 4.715c-.23.23-.54.357-.87.357a1.22 1.22 0 01-.868-.357l-6.102-6.102a1.23 1.23 0 010-1.738L8.182 7.43l1.737 1.738-.591.591a.733.733 0 000 1.036l3.328 3.329a.733.733 0 001.036 0l.592-.592 1.737 1.738-1.423 1.424zM13.031 3.24a.732.732 0 100 1.465c1.676 0 3.252.653 4.438 1.838a6.234 6.234 0 011.838 4.437.732.732 0 001.465 0 7.69 7.69 0 00-2.267-5.473A7.69 7.69 0 0013.03 3.24z"/><path d="M16.169 10.98a.733.733 0 001.465 0 4.608 4.608 0 00-4.603-4.602.732.732 0 100 1.465 3.141 3.141 0 013.138 3.137z"/></svg><svg viewBox="0 0 27 27" id="vk" xmlns="http://www.w3.org/2000/svg"><g clip-path="url(#uclip0_88_638)"><path d="M13.663 21.938c3.906 0 2.513-2.473 2.815-3.184-.005-.531-.01-1.042.009-1.353.247.07.831.366 2.037 1.538 1.862 1.88 2.338 2.998 3.842 2.998h2.769c.877 0 1.334-.363 1.562-.668.22-.294.437-.812.2-1.617-.617-1.94-4.22-5.29-4.443-5.642a3.2 3.2 0 01.116-.197h-.003c.712-.94 3.425-5.005 3.824-6.632a.022.022 0 00.003-.01c.216-.742.018-1.223-.187-1.495-.308-.408-.799-.614-1.462-.614h-2.768c-.927 0-1.63.467-1.986 1.319-.595 1.513-2.267 4.625-3.52 5.726a72.124 72.124 0 01.008-3.637c.04-1.727.171-3.408-1.621-3.408h-4.352c-1.122 0-2.197 1.227-1.034 2.683 1.018 1.275.366 1.986.585 5.526-.854-.917-2.376-3.394-3.451-6.558-.301-.856-.758-1.65-2.044-1.65H1.793C.671 5.064 0 5.677 0 6.702c0 2.301 5.095 15.236 13.663 15.236zM4.562 6.75c.244 0 .269 0 .45.514 1.101 3.244 3.572 8.043 5.376 8.043 1.356 0 1.356-1.39 1.356-1.913l-.001-4.164c-.075-1.378-.576-2.065-.906-2.481l3.947.005c.002.019-.023 4.606.01 5.718 0 1.578 1.254 2.483 3.21.503 2.065-2.33 3.492-5.813 3.55-5.955.084-.202.157-.271.423-.271h2.78c-.001.003-.001.007-.003.01-.253 1.181-2.751 4.946-3.587 6.114a.976.976 0 00-.038.057c-.368.6-.668 1.264.05 2.198h.001c.066.079.236.263.483.52.77.794 3.409 3.51 3.643 4.59-.155.024-.324.006-2.94.012-.557 0-.992-.832-2.654-2.509-1.494-1.453-2.463-2.047-3.347-2.047-1.714 0-1.59 1.392-1.573 3.075.005 1.824-.006 1.247.006 1.362-.1.04-.387.118-1.135.118-7.138 0-11.787-11.33-11.965-13.495.062-.006.913-.003 2.864-.004z"/></g><defs><clipPath id="uclip0_88_638"><path fill="#fff" d="M0 0h27v27H0z"/></clipPath></defs></svg></svg>